#!OML:ASF E:\Style4\Style4.ASF
:FULLY-SPECIFIED
:DEGREES
1342
root -0.0459691 18.1015 -0.652141 4.58937 -3.55339 4.28528
lowerback 0.85333 0.91941 0.541462
upperback -1.90142 1.25069 0.590667
thorax -2.42896 0.620123 0.265404
lowerneck 2.8134 -4.21571 -6.74493
upperneck 3.16039 -5.87926 4.94704
head 0.88741 -2.994 2.73499
rclavicle -1.66979e-014 -1.35174e-014
rhumerus -91.2181 57.6724 -125.012
rradius 87.6592
rwrist -0.821559
rhand -9.64647 34.272
rfingers 7.12502
rthumb 16.3241 4.93903
lclavicle -1.66979e-014 -1.35174e-014
lhumerus -30.7 16.0383 22.2843
lradius 113.531
lwrist -13.1698
lhand -10.6992 35.6741
lfingers 7.12502
lthumb 15.3103 65.0874
rfemur -7.55994 5.04023 13.4628
rtibia 21.4696
rfoot -16.933 -16.2324
rtoes -12.853
lfemur 1.17481 -2.43204 -24.2071
ltibia 7.82231
lfoot -14.1874 12.7117
ltoes -12.6313
1343
root -0.0467369 18.0995 -0.654637 4.59542 -4.06754 4.1937
lowerback 0.838774 0.895169 0.523351
upperback -1.9002 1.21882 0.641283
thorax -2.42097 0.605058 0.328628
lowerneck 2.79375 -4.1535 -6.75799
upperneck 3.17529 -5.7929 4.8261
head 0.886154 -2.9514 2.69699
rclavicle -1.69712e-014 -3.18055e-015
rhumerus -91.0781 57.7191 -124.804
rradius 87.6347
rwrist -0.871346
rhand -9.26317 34.6152
rfingers 7.12502
rthumb 16.6931 5.31293
lclavicle -1.69712e-014 -3.18055e-015
lhumerus -30.4679 16.0296 22.4601
lradius 113.511
lwrist -13.0565
lhand -10.5952 35.3549
lfingers 7.12502
lthumb 15.4104 64.7605
rfemur -7.76131 5.21987 13.51
rtibia 21.5789
rfoot -16.9044 -15.9706
rtoes -12.8734
lfemur 1.09938 -2.18992 -24.1504
ltibia 8.00433
lfoot -14.3779 12.8956
ltoes -12.3088
1344
root -0.0463404 18.0982 -0.661155 4.59404 -4.91669 4.10285
lowerback 0.861341 1.00913 0.500167
upperback -1.88257 1.37075 0.657436
thorax -2.41687 0.681493 0.35347
lowerneck 2.78098 -4.12912 -6.7552
upperneck 3.15954 -5.75671 4.71882
head 0.877129 -2.9335 2.66067
rclavicle -1.69712e-014 1.51076e-014
rhumerus -90.9039 57.7301 -124.602
rradius 87.627
rwrist -0.901217
rhand -8.95021 35.0054
rfingers 7.12502
rthumb 16.9944 5.72881
lclavicle -1.69712e-014 1.51076e-014
lhumerus -30.1363 16.0226 22.7234
lradius 113.531
lwrist -13.0448
lhand -10.4204 35.1825
lfingers 7.12502
lthumb 15.5788 64.5751
rfemur -8.09534 5.58649 13.5063
rtibia 21.7351
rfoot -16.8361 -15.5727
rtoes -12.9585
lfemur 0.890797 -1.61525 -24.1457
ltibia 8.47006
lfoot -14.7001 13.0235
ltoes -12.1463
1345
root -0.0418896 18.0968 -0.677204 4.68943 -6.44607 3.94249
lowerback 0.948154 1.35352 0.540938
upperback -1.92897 1.83197 0.636252
thorax -2.51299 0.910474 0.292424
lowerneck 2.87311 -4.10134 -6.69079
upperneck 3.07021 -5.72047 4.65126
head 0.825813 -2.91534 2.62971
rclavicle 1.41634e-015 8.74653e-015
rhumerus -90.7225 57.6849 -124.465
rradius 87.6089
rwrist -0.984501
rhand -8.91753 34.8735
rfingers 7.12502
rthumb 17.0258 5.59964
lclavicle 1.41634e-015 8.74653e-015
lhumerus -29.8292 15.9343 22.922
lradius 113.581
lwrist -13.0462
lhand -10.2792 35.2006
lfingers 7.12502
lthumb 15.7148 64.5826
rfemur -8.71355 6.13341 13.448
rtibia 21.7841
rfoot -16.4348 -14.7567
rtoes -13.7244
lfemur 0.691173 -0.364675 -24.1619
ltibia 8.71782
lfoot -14.9736 13.1408
ltoes -11.7411
1346
root -0.0374286 18.0941 -0.704784 5.04634 -8.8412 3.6312
lowerback 0.960856 1.99381 0.575882
upperback -2.07629 2.68953 0.668749
thorax -2.67369 1.33762 0.27577
lowerneck 2.889 -4.07001 -6.7353
upperneck 3.09474 -5.68129 4.64777
head 0.829812 -2.8967 2.63721
rclavicle 4.5969e-015 1.82882e-014
rhumerus -90.5816 57.6507 -124.28
rradius 87.6155
rwrist -1.08262
rhand -9.04539 34.4499
rfingers 7.12502
rthumb 16.9027 5.1655
lclavicle 4.5969e-015 1.82882e-014
lhumerus -29.5791 15.7908 23.1441
lradius 113.577
lwrist -13.1143
lhand -10.476 35.1749
lfingers 7.12502
lthumb 15.5252 64.5716
rfemur -9.85743 6.96719 13.3941
rtibia 21.7751
rfoot -15.8104 -13.3914
rtoes -14.5536
lfemur 0.265017 1.742 -24.13
ltibia 8.88515
lfoot -15.373 13.1771
ltoes -10.5504
1347
root -0.0456783 18.0957 -0.67357 4.48142 -6.68106 3.76487
lowerback 1.03084 1.10883 0.562858
upperback -1.84367 1.50703 0.689113
thorax -2.47195 0.748447 0.343712
lowerneck 2.85913 -4.05663 -6.82995
upperneck 3.10234 -5.66386 4.6395
head 0.839217 -2.88888 2.65121
rclavicle 7.47927e-015 7.15625e-015
rhumerus -90.3643 57.6318 -123.993
rradius 87.6072
rwrist -1.1483
rhand -9.56037 34.1452
rfingers 7.12502
rthumb 16.407 4.81907
lclavicle 7.47927e-015 7.15625e-015
lhumerus -29.3211 15.6385 23.4111
lradius 113.596
lwrist -13.1835
lhand -10.6835 35.3329
lfingers 7.12502
lthumb 15.3253 64.745
rfemur -8.44976 6.48271 13.7159
rtibia 21.6898
rfoot -16.4128 -14.811
rtoes -13.1567
lfemur 0.843649 -0.652784 -23.9497
ltibia 8.96356
lfoot -15.333 13.4097
ltoes -10.8323
1348
root -0.0498659 18.0948 -0.658542 4.24482 -6.07094 3.64004
lowerback 1.02859 0.745959 0.673354
upperback -1.72347 1.02457 0.716367
thorax -2.34437 0.506153 0.325969
lowerneck 2.80749 -4.03683 -6.75127
upperneck 3.1669 -5.63069 4.49987
head 0.85921 -2.87192 2.58836
rclavicle 1.14798e-014 2.8625e-014
rhumerus -90.2092 57.6345 -123.851
rradius 87.5728
rwrist -1.18364
rhand -9.57429 34.7072
rfingers 7.12502
rthumb 16.3936 5.37994
lclavicle 1.14798e-014 2.8625e-014
lhumerus -29.061 15.515 23.6247
lradius 113.659
lwrist -13.1327
lhand -10.5076 35.3013
lfingers 7.12502
lthumb 15.4948 64.7004
rfemur -7.88344 6.40714 14.0256
rtibia 21.613
rfoot -16.6754 -15.2618
rtoes -12.5858
lfemur 1.16165 -1.50899 -23.7204
ltibia 8.97338
lfoot -15.3852 13.553
ltoes -10.5394
1349
root -0.0503086 18.093 -0.648946 4.14855 -5.707 3.64395
lowerback 0.994956 0.470116 0.674555
upperback -1.68841 0.654995 0.678251
thorax -2.28846 0.321405 0.297908
lowerneck 2.7502 -3.98323 -6.6801
upperneck 3.28329 -5.55492 4.42981
head 0.896804 -2.83392 2.55009
rclavicle 5.66536e-015 -1.19271e-014
rhumerus -90.072 57.5258 -123.721
rradius 87.5161
rwrist -1.1614
rhand -8.65759 36.2697
rfingers 7.12502
rthumb 17.276 7.01754
lclavicle 5.66536e-015 -1.19271e-014
lhumerus -28.8328 15.3718 23.7815
lradius 113.724
lwrist -13.0605
lhand -10.2093 35.1339
lfingers 7.12502
lthumb 15.7821 64.5105
rfemur -7.51906 6.27078 14.1083
rtibia 21.4007
rfoot -16.7382 -15.482
rtoes -12.4904
lfemur 1.44669 -2.14023 -23.6788
ltibia 8.70876
lfoot -15.332 13.7116
ltoes -9.9211
1350
root -0.0559862 18.0921 -0.659881 4.25175 -6.96726 3.52812
lowerback 1.05667 0.721288 0.501817
upperback -1.76279 0.988184 0.701595
thorax -2.40315 0.490798 0.407314
lowerneck 2.75062 -3.91248 -6.67082
upperneck 3.32316 -5.45925 4.34677
head 0.900504 -2.78679 2.52117
rclavicle -1.02623e-014 1.82882e-014
rhumerus -90.0964 57.47 -123.722
rradius 87.4697
rwrist -1.20614
rhand -10.2646 35.5534
rfingers 7.12502
rthumb 15.7289 6.17256
lclavicle -1.02623e-014 1.82882e-014
lhumerus -28.7074 15.2317 23.916
lradius 113.749
lwrist -13.1512
lhand -10.1321 35.0627
lfingers 7.12502
lthumb 15.8564 64.4334
rfemur -7.93196 6.70392 14.0858
rtibia 21.3207
rfoot -16.3938 -14.8205
rtoes -13.3193
lfemur 1.31614 -1.15915 -23.6551
ltibia 8.86821
lfoot -15.6396 13.8532
ltoes -9.69393
